<?xml version="1.0" encoding="UTF-8"?>
<svg id="Layer_2" data-name="Layer 2" xmlns="http://www.w3.org/2000/svg" viewBox="0 0 658.61 594.27">
  <defs>
    <style>
      .cls-1 {
        fill: #231f20;
        stroke-width: 0px;
      }
    </style>
  </defs>
  <g id="Black_Logo" data-name="Black Logo">
    <path class="cls-1" d="M450.29,319.39h158.63c27.44,0,49.69,22.25,49.69,49.69h0c0,27.44-22.25,49.69-49.69,49.69h-108.94c-27.44,0-49.69,22.25-49.69,49.69v76.12c0,27.44-22.25,49.69-49.69,49.69h-2.03c-27.44,0-49.69-22.25-49.69-49.69v-125.81s0-99.38,0-99.38h101.4Z"/>
    <path class="cls-1" d="M208.31,319.39H49.69c-27.44,0-49.69,22.25-49.69,49.69h0c0,27.44,22.25,49.69,49.69,49.69h108.94c27.44,0,49.69,22.25,49.69,49.69v76.12c0,27.44,22.25,49.69,49.69,49.69h2.03c27.44,0,49.69-22.25,49.69-49.69v-225.19h-101.4Z"/>
    <path class="cls-1" d="M312.85,236.32c-16.63,8.24-35.37,12.86-55.18,12.86-68.81,0-124.59-55.78-124.59-124.59S188.86,0,257.67,0c19.81,0,38.55,4.62,55.18,12.86-41.13,20.35-69.41,62.73-69.41,111.73s28.28,91.38,69.41,111.73Z"/>
    <path class="cls-1" d="M522.55,124.59c0,68.81-55.78,124.59-124.59,124.59-19.81,0-38.55-4.62-55.18-12.86,41.13-20.35,69.41-62.73,69.41-111.73s-28.28-91.38-69.41-111.73c16.63-8.24,35.37-12.86,55.18-12.86,68.81,0,124.59,55.78,124.59,124.59Z"/>
  </g>
</svg>